<svg xmlns="http://www.w3.org/2000/svg" xmlns:xlink="http://www.w3.org/1999/xlink" id="Capa_1" x="0px" y="0px" viewBox="0 0 468.5 95" style="enable-background:new 0 0 468.5 95;" xml:space="preserve"> <style type="text/css"> .st0{fill:#F68B11;} .st1{fill:#5A5758;stroke:#FFFFFF;stroke-miterlimit:10;} .st2{fill-rule:evenodd;clip-rule:evenodd;fill:#F68B11;} .st3{fill:#FFFFFF;} .st4{fill-rule:evenodd;clip-rule:evenodd;fill:#FFFFFF;} .st5{fill:#5A5758;} </style> <path id="path14_13_" class="st0" d="M0,6.5c0-3.3,2.7-6,6-6h82c3.3,0,6,2.7,6,6v82c0,3.3-2.7,6-6,6H6c-3.3,0-6-2.7-6-6V6.5"></path> <path id="path16_13_" class="st1" d="M100,6.5c0-3.3,2.7-6,6-6h147.9c3.3,0,6,2.7,6,6v82c0,3.3-2.7,6-6,6H106c-3.3,0-6-2.7-6-6V6.5"></path> <g> <path id="path24_13_" class="st2" d="M114.3,59.4h-2.9V43.1h6.7c1.9,0,3.3,0.5,4.2,1.4c0.9,1,1.4,2.1,1.4,3.4 c0,1.5-0.5,2.7-1.5,3.6c-1,0.9-2.3,1.4-3.8,1.4h-4.1C114.3,52.9,114.3,59.4,114.3,59.4z M114.3,50.5h3.5c0.9,0,1.6-0.2,2.1-0.7 c0.5-0.4,0.7-1,0.7-1.8c0-0.7-0.2-1.2-0.7-1.7c-0.4-0.5-1.2-0.7-2.4-0.7h-3.2V50.5"></path> <path id="path26_13_" class="st2" d="M132.1,59.7c-2.2,0-3.9-0.8-5.1-2.4c-1.2-1.6-1.8-3.6-1.8-6s0.6-4.4,1.9-6s3-2.4,5.1-2.4 s3.8,0.8,5,2.4c1.2,1.6,1.8,3.6,1.8,6c0,2.5-0.6,4.5-1.9,6.1C135.9,58.9,134.2,59.7,132.1,59.7z M132.1,57.3c1.1,0,2-0.4,2.7-1.3 c0.7-0.9,1.1-2.5,1.1-4.8c0-1.9-0.3-3.3-0.9-4.4c-0.6-1.1-1.5-1.6-2.8-1.6c-2.5,0-3.8,2-3.8,6.1c0,2,0.3,3.5,1,4.5 C130,56.8,130.9,57.3,132.1,57.3"></path> <path id="path28_13_" class="st0" d="M151.9,59.4h-10V43.1h3.1v13.6h6.9V59.4"></path> <path id="path30_13_" class="st0" d="M156.9,59.4H154V43.1h2.9V59.4"></path> <path id="path32_13_" class="st0" d="M166.2,59.4H163V45.6h-4.3v-2.5h11.8v2.5h-4.3V59.4"></path> <path id="path34_13_" class="st2" d="M182.9,59.4h-10.6V43.1h10.5v2.4h-7.5V50h6.1v2.4h-6.1V57h7.7L182.9,59.4L182.9,59.4z M180.6,37.9l0.8,1.8l-5,2.1l-0.5-1.3L180.6,37.9"></path> <path id="path36_13_" class="st0" d="M194.6,53.8l2.7,0.3c-0.2,1.6-0.8,3-1.9,4c-1.1,1.1-2.5,1.6-4.3,1.6c-1.5,0-2.7-0.4-3.6-1.1 c-0.9-0.7-1.6-1.8-2.1-3c-0.5-1.3-0.8-2.7-0.8-4.2c0-2.5,0.6-4.5,1.8-6.1s2.8-2.3,4.9-2.3c1.6,0,3,0.5,4,1.5c1.1,1,1.8,2.4,2,4.3 l-2.7,0.3c-0.5-2.5-1.6-3.7-3.3-3.7c-1.1,0-2,0.5-2.6,1.5s-0.9,2.5-0.9,4.4c0,2,0.3,3.5,1,4.5s1.5,1.5,2.6,1.5c0.9,0,1.6-0.3,2.2-1 C194.2,55.5,194.5,54.7,194.6,53.8"></path> <path id="path38_13_" class="st0" d="M212,59.4h-2.9L202.9,49c-0.1-0.2-0.3-0.4-0.5-0.8c-0.1-0.2-0.2-0.4-0.4-0.8v11.9h-2.4V43.1 h3.2l5.7,9.6c0,0.1,0.4,0.7,1,1.8V43.1h2.3v16.3"></path> <path id="path40_13_" class="st0" d="M218.5,59.4h-2.9V43.1h2.9V59.4"></path> <path id="path42_13_" class="st0" d="M231.2,53.8l2.7,0.3c-0.2,1.6-0.8,3-1.9,4c-1.1,1.1-2.5,1.6-4.3,1.6c-1.5,0-2.7-0.4-3.6-1.1 c-0.9-0.7-1.6-1.8-2.1-3c-0.5-1.3-0.8-2.7-0.8-4.2c0-2.5,0.6-4.5,1.8-6.1s2.8-2.3,4.9-2.3c1.6,0,3,0.5,4,1.5c1.1,1,1.8,2.4,2,4.3 l-2.7,0.3c-0.5-2.5-1.6-3.7-3.3-3.7c-1.1,0-2,0.5-2.6,1.5s-0.9,2.5-0.9,4.4c0,2,0.3,3.5,1,4.5s1.5,1.5,2.6,1.5c0.9,0,1.6-0.3,2.2-1 C230.8,55.5,231.2,54.7,231.2,53.8"></path> <path id="path44_13_" class="st2" d="M242.3,59.7c-2.2,0-3.9-0.8-5.1-2.4c-1.2-1.6-1.8-3.6-1.8-6s0.6-4.4,1.9-6 c1.3-1.6,3-2.4,5.1-2.4s3.8,0.8,5,2.4c1.2,1.6,1.8,3.6,1.8,6c0,2.5-0.6,4.5-1.9,6.1C246.1,58.9,244.4,59.7,242.3,59.7L242.3,59.7z M242.3,57.3c1.1,0,2-0.4,2.7-1.3c0.7-0.9,1.1-2.5,1.1-4.8c0-1.9-0.3-3.3-0.9-4.4c-0.6-1.1-1.5-1.6-2.8-1.6c-2.5,0-3.8,2-3.8,6.1 c0,2,0.3,3.5,1,4.5C240.2,56.8,241.1,57.3,242.3,57.3"></path> </g> <g> <path id="path36-5_13_" class="st3" d="M121.3,33.7L124,34c-0.2,1.6-0.8,3-1.9,4c-1.1,1.1-2.5,1.6-4.3,1.6c-1.5,0-2.7-0.4-3.6-1.1 c-0.9-0.7-1.6-1.8-2.1-3c-0.5-1.3-0.8-2.7-0.8-4.2c0-2.5,0.6-4.5,1.8-6.1c1.2-1.6,2.8-2.3,4.9-2.3c1.6,0,3,0.5,4,1.5 c1.1,1,1.8,2.4,2,4.3l-2.7,0.3c-0.5-2.5-1.6-3.7-3.3-3.7c-1.1,0-2,0.5-2.6,1.5s-0.9,2.5-0.9,4.4c0,2,0.3,3.5,1,4.5s1.5,1.5,2.6,1.5 c0.9,0,1.6-0.3,2.2-1C120.9,35.4,121.3,34.6,121.3,33.7"></path> <path id="path24-1_13_" class="st4" d="M150.6,39.4h-2.9V23h6.7c1.9,0,3.3,0.5,4.2,1.4c0.9,1,1.4,2.1,1.4,3.4 c0,1.5-0.5,2.7-1.5,3.6s-2.3,1.4-3.8,1.4h-4.1L150.6,39.4L150.6,39.4z M150.6,30.3h3.5c0.9,0,1.6-0.2,2.1-0.7 c0.5-0.4,0.7-1,0.7-1.8c0-0.7-0.2-1.3-0.7-1.7c-0.4-0.5-1.2-0.7-2.4-0.7h-3.2L150.6,30.3"></path> <path id="path46_13_" class="st3" d="M130.6,39.4h-2.9V23.1h2.9V39.4"></path> <path class="st3" d="M144.7,25.5v-2.4h-10.5v16.3h2.9c0-2.4,0-4.7,0-7.1h6.1v-2.4h-6.1v-4.4C137.1,25.5,144.7,25.5,144.7,25.5z"></path> <path id="path58_13_" class="st3" d="M114.5,69.8l1.3,0.1c-0.2,0.9-0.5,1.5-1,1.9s-1.1,0.6-1.8,0.6c-0.9,0-1.7-0.3-2.2-1 s-0.8-1.5-0.8-2.5s0.3-1.9,0.8-2.5c0.6-0.7,1.3-1,2.2-1c1.5,0,2.4,0.8,2.7,2.3l-1.3,0.2c-0.1-0.8-0.5-1.3-1.2-1.3 c-0.5,0-0.9,0.2-1.1,0.7s-0.4,1-0.4,1.7s0.1,1.2,0.4,1.6c0.2,0.4,0.6,0.6,1,0.6C113.8,71.1,114.3,70.7,114.5,69.8"></path> <path id="path60_13_" class="st4" d="M132.6,72.3h-1.5c-0.1-0.4-0.2-0.9-0.2-1.4c-0.4,1-1.2,1.5-2.3,1.5c-0.7,0-1.2-0.2-1.6-0.6 s-0.6-0.9-0.6-1.5c0-1.6,1.4-2.3,4.1-2.3c0.1,0,0.3,0,0.4,0v-0.5c0-0.7-0.5-1.1-1.4-1.1s-1.5,0.4-1.6,1.1l-1.3-0.2 c0.1-0.6,0.4-1,0.9-1.4s1.3-0.6,2.2-0.6c0.5,0,1,0,1.3,0.1s0.6,0.2,0.8,0.4c0.2,0.2,0.4,0.4,0.5,0.7c0.1,0.2,0.1,0.7,0.1,1.2V71 C132.4,71.4,132.5,71.9,132.6,72.3z M130.9,68.9c-2,0-3,0.5-3,1.4c0,0.3,0.1,0.5,0.3,0.7c0.2,0.2,0.5,0.3,0.9,0.3 c0.6,0,1-0.2,1.3-0.6s0.4-0.8,0.4-1.3v-0.5"></path> <path id="path62_13_" class="st3" d="M145.6,72.3h-1.5v-6.8h1.4v1.6c0.2-0.6,0.5-1.1,0.8-1.4s0.7-0.4,1.1-0.4c0,0,0.1,0,0.2,0V67 c-0.8,0-1.3,0.2-1.6,0.7s-0.4,1-0.4,1.5V72.3"></path> <path id="path64_13_" class="st3" d="M161.9,71.1v1.2c-0.5,0.1-0.8,0.1-1.1,0.1c-0.4,0-0.8-0.1-1.1-0.2c-0.3-0.2-0.5-0.4-0.7-0.7 c-0.1-0.3-0.2-0.7-0.2-1.3v-3.5H158v-1.2h0.9l0.1-1.8l1.3-0.1v1.9h1.4v1.2h-1.4V70c0,0.4,0.1,0.7,0.2,0.9c0.2,0.2,0.4,0.2,0.9,0.2 C161.6,71.2,161.7,71.2,161.9,71.1"></path> <path id="path66_13_" class="st4" d="M178.8,72.3h-1.5c-0.1-0.4-0.2-0.9-0.2-1.4c-0.4,1-1.2,1.5-2.3,1.5c-0.7,0-1.2-0.2-1.6-0.6 c-0.4-0.4-0.6-0.9-0.6-1.5c0-1.6,1.4-2.3,4.1-2.3c0.1,0,0.3,0,0.4,0v-0.5c0-0.7-0.5-1.1-1.4-1.1s-1.5,0.4-1.6,1.1l-1.3-0.2 c0.1-0.6,0.4-1,0.9-1.4s1.3-0.6,2.2-0.6c0.5,0,1,0,1.3,0.1s0.6,0.2,0.8,0.4c0.2,0.2,0.4,0.4,0.5,0.7c0.1,0.2,0.1,0.7,0.1,1.2V71 C178.6,71.4,178.7,71.9,178.8,72.3L178.8,72.3z M177.1,68.9c-2,0-3,0.5-3,1.4c0,0.3,0.1,0.5,0.3,0.7s0.5,0.3,0.9,0.3 c0.6,0,1-0.2,1.3-0.6s0.4-0.8,0.4-1.3v-0.5"></path> <path id="path68_13_" class="st4" d="M196.4,64.2v1.2H196c-0.2,0-0.4,0-0.5,0.1c-0.2,0-0.3,0.2-0.5,0.5c0.5,0.4,0.8,0.9,0.8,1.5 s-0.3,1.1-0.8,1.5s-1.2,0.6-2,0.6c-0.4,0-0.8-0.1-1.3-0.2c-0.3,0.1-0.5,0.4-0.5,0.7c0,0.2,0.1,0.3,0.2,0.5c0.2,0.1,0.4,0.2,0.7,0.2 h2c0.7,0,1.2,0.2,1.6,0.5c0.4,0.4,0.6,0.8,0.6,1.3c0,0.6-0.3,1.2-0.9,1.6c-0.6,0.4-1.5,0.6-2.6,0.6c-2.2,0-3.3-0.6-3.3-1.8 c0-0.6,0.3-1.1,1-1.4c-0.4-0.4-0.6-0.7-0.6-1.1c0-0.6,0.4-1.1,1.1-1.4c-0.6-0.4-0.9-0.9-0.9-1.6c0-0.6,0.2-1.1,0.7-1.5 s1.2-0.6,2.1-0.6c0.4,0,0.9,0,1.3,0.1c0.2-0.9,0.8-1.3,1.6-1.3L196.4,64.2L196.4,64.2z M192.9,68.6c0.8,0,1.3-0.4,1.3-1.2 c0-0.3-0.1-0.6-0.3-0.8c-0.2-0.2-0.5-0.3-0.9-0.3s-0.7,0.1-0.9,0.3c-0.2,0.2-0.3,0.5-0.3,0.8s0.1,0.6,0.3,0.8 C192.2,68.5,192.6,68.6,192.9,68.6L192.9,68.6z M191.3,72c-0.2,0.2-0.3,0.4-0.3,0.6c0,0.3,0.2,0.6,0.6,0.8c0.4,0.2,1,0.4,1.8,0.4 c1.2,0,1.8-0.3,1.8-0.9c0-0.2-0.1-0.4-0.3-0.5s-0.4-0.2-0.7-0.2h-1.6C192.1,72.1,191.7,72.1,191.3,72"></path> <path id="path70_13_" class="st4" d="M211.5,70.2l1.4,0.2c-0.2,0.6-0.5,1.1-1.1,1.5c-0.5,0.4-1.2,0.6-2,0.6c-0.9,0-1.7-0.3-2.3-1 c-0.6-0.6-0.9-1.5-0.9-2.6c0-1,0.3-1.9,0.9-2.6c0.6-0.7,1.4-1,2.4-1s1.7,0.3,2.3,1c0.5,0.7,0.8,1.5,0.8,2.6v0.2h-4.7 c0,0.5,0,0.8,0.1,1.1c0.1,0.3,0.3,0.5,0.5,0.7c0.3,0.2,0.6,0.3,1,0.3C210.7,71.3,211.2,70.9,211.5,70.2L211.5,70.2z M211.4,68.1 c0-0.5-0.2-0.9-0.4-1.2c-0.3-0.3-0.6-0.5-1.1-0.5c-0.4,0-0.8,0.1-1.1,0.4s-0.4,0.7-0.5,1.2L211.4,68.1"></path> <path id="path72_13_" class="st3" d="M229.9,72.3h-1.5V68c0-0.5-0.1-0.8-0.3-1s-0.5-0.3-0.7-0.3c-0.4,0-0.8,0.2-1.1,0.5 c-0.3,0.4-0.5,0.9-0.5,1.6v3.5h-1.5v-6.8h1.4v1.6c0.5-1.1,1.2-1.7,2.1-1.7c0.6,0,1.1,0.2,1.5,0.6s0.6,1,0.6,2V72.3"></path> <path id="path74_13_" class="st4" d="M247.4,72.3h-1.5c-0.1-0.4-0.2-0.9-0.2-1.4c-0.4,1-1.2,1.5-2.3,1.5c-0.7,0-1.2-0.2-1.6-0.6 c-0.4-0.4-0.6-0.9-0.6-1.5c0-1.6,1.4-2.3,4.1-2.3c0.1,0,0.3,0,0.4,0v-0.5c0-0.7-0.5-1.1-1.4-1.1s-1.5,0.4-1.6,1.1l-1.3-0.2 c0.1-0.6,0.4-1,0.9-1.4s1.3-0.6,2.2-0.6c0.5,0,1,0,1.3,0.1s0.6,0.2,0.8,0.4c0.2,0.2,0.4,0.4,0.5,0.7c0.1,0.2,0.1,0.7,0.1,1.2V71 C247.2,71.4,247.2,71.9,247.4,72.3z M245.7,68.9c-2,0-3,0.5-3,1.4c0,0.3,0.1,0.5,0.3,0.7s0.5,0.3,0.9,0.3c0.6,0,1-0.2,1.3-0.6 s0.4-0.8,0.4-1.3v-0.5"></path> </g> <g> <path class="st5" d="M274.8,18.6v5.3h-2.1V11.1h4.4c1.4,0,2.5,0.3,3.3,1s1.2,1.6,1.2,2.8c0,0.7-0.2,1.2-0.5,1.7s-0.8,0.9-1.5,1.1 c0.7,0.2,1.2,0.6,1.6,1.1s0.5,1.2,0.5,1.9v1.1c0,0.4,0,0.7,0.1,1.1s0.2,0.6,0.5,0.8v0.2H280c-0.2-0.2-0.4-0.5-0.4-0.9 s-0.1-0.8-0.1-1.2v-1c0-0.7-0.2-1.2-0.6-1.6s-0.9-0.6-1.5-0.6H274.8z M274.8,16.9h2.2c0.9,0,1.5-0.2,1.9-0.5s0.6-0.8,0.6-1.5 c0-0.6-0.2-1.1-0.6-1.5s-1-0.5-1.8-0.5h-2.3L274.8,16.9L274.8,16.9z"></path> <path class="st5" d="M287.6,24.1c-1.4,0-2.5-0.4-3.3-1.3s-1.2-2-1.2-3.4V19c0-1.4,0.4-2.5,1.2-3.4c0.8-0.9,1.8-1.4,3-1.3 c1.3,0,2.2,0.4,2.9,1.2c0.7,0.8,1,1.8,1,3.2v1.2h-5.9l0,0c0,0.8,0.2,1.4,0.6,1.9s1,0.7,1.7,0.7c0.6,0,1.1-0.1,1.5-0.2 s0.8-0.3,1.2-0.6l0.7,1.4c-0.4,0.3-0.8,0.6-1.4,0.8S288.4,24.1,287.6,24.1z M287.4,15.9c-0.6,0-1,0.2-1.3,0.6s-0.5,0.9-0.6,1.6l0,0 h3.7V18c0-0.6-0.1-1.1-0.4-1.5S288,15.9,287.4,15.9z"></path> <path class="st5" d="M292.2,19.3c0-1.5,0.3-2.7,1-3.7c0.7-0.9,1.6-1.4,2.7-1.4c0.5,0,1,0.1,1.4,0.3s0.8,0.5,1.1,0.9v-5.2h2.1v13.7 h-1.7l-0.3-1.2c-0.3,0.5-0.7,0.8-1.1,1s-0.9,0.4-1.5,0.4c-1.2,0-2.1-0.4-2.7-1.3s-1-2-1-3.3V19.3z M294.3,19.5 c0,0.9,0.2,1.6,0.5,2.1s0.9,0.8,1.6,0.8c0.5,0,0.8-0.1,1.1-0.3s0.6-0.5,0.8-0.8v-4.1c-0.2-0.4-0.5-0.6-0.8-0.8s-0.7-0.3-1.1-0.3 c-0.7,0-1.3,0.3-1.6,0.9S294.3,18.4,294.3,19.5L294.3,19.5z"></path> <path class="st5" d="M313.9,18.1h-5v4.1h5.9v1.7h-8V11.1h8v1.7H309v3.6h5v1.7H313.9z"></path> <path class="st5" d="M321.5,21.3c0-0.3-0.1-0.6-0.4-0.8s-0.8-0.4-1.6-0.6c-1.1-0.2-2-0.6-2.6-1s-0.9-1-0.9-1.8s0.3-1.5,1-2 s1.6-0.8,2.7-0.8s2.1,0.3,2.7,0.9s1,1.3,1,2.1v0.1h-2c0-0.4-0.2-0.7-0.5-1s-0.7-0.4-1.2-0.4s-0.9,0.1-1.2,0.4 c-0.3,0.2-0.4,0.5-0.4,0.9c0,0.3,0.1,0.6,0.4,0.8s0.8,0.4,1.6,0.5c1.2,0.2,2,0.6,2.6,1s0.9,1.1,0.9,1.8c0,0.9-0.4,1.6-1.1,2.1 s-1.6,0.8-2.8,0.8c-1.2,0-2.2-0.3-2.9-0.9s-1.1-1.4-1-2.2v-0.1h2c0,0.6,0.2,1,0.6,1.2s0.8,0.4,1.4,0.4c0.5,0,1-0.1,1.3-0.3 S321.5,21.7,321.5,21.3z"></path> <path class="st5" d="M327.9,12.1v2.3h1.7V16h-1.7v5.3c0,0.4,0.1,0.7,0.3,0.8s0.4,0.3,0.7,0.3c0.1,0,0.2,0,0.3,0s0.2,0,0.3-0.1 l0.2,1.6c-0.2,0.1-0.4,0.2-0.6,0.2s-0.5,0.1-0.8,0.1c-0.8,0-1.4-0.2-1.9-0.7s-0.7-1.2-0.7-2.2V16h-1.5v-1.6h1.5v-2.3 C325.7,12.1,327.9,12.1,327.9,12.1z"></path> <path class="st5" d="M336.7,23.9c-0.1-0.2-0.1-0.5-0.2-0.7s-0.1-0.5-0.1-0.7c-0.3,0.4-0.7,0.8-1.2,1.1s-1,0.5-1.6,0.5 c-1,0-1.8-0.3-2.3-0.8s-0.8-1.2-0.8-2.1s0.4-1.6,1.1-2.1s1.7-0.8,3.1-0.8h1.7v-0.8c0-0.5-0.1-0.9-0.4-1.2s-0.7-0.4-1.3-0.4 c-0.5,0-0.9,0.1-1.2,0.3c-0.3,0.2-0.4,0.5-0.4,0.9H331V17c0-0.8,0.3-1.4,1-2s1.6-0.9,2.8-0.9c1.1,0,2,0.3,2.7,0.8s1,1.4,1,2.4v4.2 c0,0.4,0,0.8,0.1,1.1s0.1,0.7,0.3,1.1h-2.2V23.9z M334.1,22.4c0.5,0,1-0.1,1.4-0.4s0.7-0.6,0.9-0.9v-1.4h-1.7 c-0.6,0-1.1,0.2-1.5,0.5s-0.5,0.7-0.5,1.1s0.1,0.7,0.4,0.9S333.6,22.4,334.1,22.4z"></path> <path class="st5" d="M343.1,12.1v2.3h1.7V16h-1.7v5.3c0,0.4,0.1,0.7,0.3,0.8s0.4,0.3,0.7,0.3c0.1,0,0.2,0,0.3,0s0.2,0,0.3-0.1 l0.2,1.6c-0.2,0.1-0.4,0.2-0.6,0.2s-0.5,0.1-0.8,0.1c-0.8,0-1.4-0.2-1.9-0.7s-0.7-1.2-0.7-2.2V16h-1.5v-1.6h1.5v-2.3 C340.9,12.1,343.1,12.1,343.1,12.1z"></path> <path class="st5" d="M351.9,23.9c-0.1-0.2-0.1-0.5-0.2-0.7s-0.1-0.5-0.1-0.7c-0.3,0.4-0.7,0.8-1.2,1.1s-1,0.5-1.6,0.5 c-1,0-1.8-0.3-2.3-0.8s-0.8-1.2-0.8-2.1s0.4-1.6,1.1-2.1s1.7-0.8,3.1-0.8h1.7v-0.8c0-0.5-0.1-0.9-0.4-1.2s-0.7-0.4-1.3-0.4 c-0.5,0-0.9,0.1-1.2,0.3c-0.3,0.2-0.4,0.5-0.4,0.9h-2.1V17c0-0.8,0.3-1.4,1-2s1.6-0.9,2.8-0.9c1.1,0,2,0.3,2.7,0.8s1,1.4,1,2.4v4.2 c0,0.4,0,0.8,0.1,1.1s0.1,0.7,0.3,1.1h-2.2V23.9z M349.3,22.4c0.5,0,1-0.1,1.4-0.4s0.7-0.6,0.9-0.9v-1.4h-1.7 c-0.6,0-1.1,0.2-1.5,0.5s-0.5,0.7-0.5,1.1s0.1,0.7,0.4,0.9S348.9,22.4,349.3,22.4z"></path> <path class="st5" d="M357.9,23.9h-2.1V10.2h2.1V23.9z"></path> <path class="st5" d="M363.7,19.3c0-1.5,0.3-2.7,1-3.7c0.7-0.9,1.6-1.4,2.7-1.4c0.5,0,1,0.1,1.4,0.3s0.8,0.5,1.1,0.9v-5.2h2.1v13.7 h-1.7l-0.3-1.2c-0.3,0.5-0.7,0.8-1.1,1s-0.9,0.4-1.5,0.4c-1.2,0-2.1-0.4-2.7-1.3s-1-2-1-3.3V19.3z M365.8,19.5 c0,0.9,0.2,1.6,0.5,2.1s0.9,0.8,1.6,0.8c0.5,0,0.8-0.1,1.1-0.3s0.6-0.5,0.8-0.8v-4.1c-0.2-0.4-0.5-0.6-0.8-0.8s-0.7-0.3-1.1-0.3 c-0.7,0-1.3,0.3-1.6,0.9S365.8,18.4,365.8,19.5L365.8,19.5z"></path> <path class="st5" d="M377.9,24.1c-1.4,0-2.5-0.4-3.3-1.3s-1.2-2-1.2-3.4V19c0-1.4,0.4-2.5,1.2-3.4c0.8-0.9,1.8-1.4,3-1.3 c1.3,0,2.2,0.4,2.9,1.2c0.7,0.8,1,1.8,1,3.2v1.2h-5.9l0,0c0,0.8,0.2,1.4,0.6,1.9s1,0.7,1.7,0.7c0.6,0,1.1-0.1,1.5-0.2 s0.8-0.3,1.2-0.6l0.7,1.4c-0.4,0.3-0.8,0.6-1.4,0.8S378.7,24.1,377.9,24.1z M377.7,15.9c-0.6,0-1,0.2-1.3,0.6s-0.5,0.9-0.6,1.6l0,0 h3.7V18c0-0.6-0.1-1.1-0.4-1.5S378.3,15.9,377.7,15.9z"></path> <path class="st5" d="M282,39.8L282,39.8c0,1.3-0.4,2.4-1.2,3.2s-2,1.2-3.5,1.2s-2.7-0.5-3.6-1.5s-1.4-2.3-1.4-3.9v-2.4 c0-1.6,0.5-2.8,1.4-3.9c0.9-1,2.1-1.5,3.6-1.5s2.7,0.4,3.6,1.2c0.9,0.8,1.3,1.8,1.3,3.2v0.1H280c0-0.9-0.2-1.5-0.7-2 s-1.1-0.7-2-0.7s-1.6,0.3-2.1,1s-0.8,1.6-0.8,2.6v2.5c0,1.1,0.3,1.9,0.8,2.6s1.2,1,2.1,1s1.5-0.2,2-0.7s0.7-1.1,0.7-2 C280,39.8,282,39.8,282,39.8z"></path> <path class="st5" d="M287.6,44.2c-1.4,0-2.5-0.4-3.3-1.3s-1.2-2-1.2-3.4v-0.4c0-1.4,0.4-2.5,1.2-3.4s1.8-1.4,3-1.3 c1.3,0,2.2,0.4,2.9,1.2s1,1.8,1,3.2V40h-5.9l0,0c0,0.8,0.2,1.4,0.6,1.9s1,0.7,1.7,0.7c0.6,0,1.1-0.1,1.5-0.2s0.8-0.3,1.2-0.6 l0.7,1.4c-0.4,0.3-0.8,0.6-1.4,0.8S288.3,44.2,287.6,44.2z M287.3,36c-0.6,0-1,0.2-1.3,0.6s-0.5,0.9-0.6,1.6l0,0h3.7V38 c0-0.6-0.1-1.1-0.4-1.5S287.9,36,287.3,36z"></path> <path class="st5" d="M294.5,34.5l0.1,1.4c0.3-0.5,0.7-0.9,1.2-1.1s1-0.4,1.6-0.4c1,0,1.8,0.3,2.3,0.9s0.8,1.6,0.8,2.9V44h-2.1v-5.9 c0-0.7-0.1-1.3-0.4-1.6s-0.7-0.5-1.3-0.5c-0.5,0-0.9,0.1-1.2,0.3s-0.6,0.4-0.8,0.7v7h-2.1v-9.5H294.5z"></path> <path class="st5" d="M305.1,32.2v2.3h1.7v1.6h-1.7v5.3c0,0.4,0.1,0.7,0.3,0.8s0.4,0.3,0.7,0.3c0.1,0,0.2,0,0.3,0s0.2,0,0.3-0.1 l0.2,1.6c-0.2,0.1-0.4,0.2-0.6,0.2s-0.5,0.1-0.8,0.1c-0.8,0-1.4-0.2-1.9-0.7s-0.7-1.2-0.7-2.2v-5.3h-1.5v-1.6h1.5v-2.3 C302.9,32.2,305.1,32.2,305.1,32.2z"></path> <path class="st5" d="M313,36.4h-0.9c-0.4,0-0.8,0.1-1,0.3s-0.5,0.4-0.6,0.7V44h-2.1v-9.5h2l0.1,1.4c0.2-0.5,0.5-0.9,0.9-1.1 s0.8-0.4,1.3-0.4c0.1,0,0.2,0,0.4,0s0.2,0,0.3,0.1L313,36.4z"></path> <path class="st5" d="M313.6,39.2c0-1.4,0.4-2.6,1.2-3.5s1.8-1.4,3.2-1.4c1.4,0,2.4,0.5,3.2,1.4s1.2,2.1,1.2,3.5v0.2 c0,1.4-0.4,2.6-1.2,3.5s-1.8,1.3-3.2,1.3c-1.4,0-2.4-0.5-3.2-1.4S313.6,40.7,313.6,39.2L313.6,39.2z M315.7,39.4 c0,0.9,0.2,1.7,0.5,2.3s0.9,0.9,1.7,0.9c0.7,0,1.3-0.3,1.7-0.9s0.6-1.3,0.6-2.3v-0.2c0-0.9-0.2-1.7-0.6-2.2s-0.9-1-1.6-1 s-1.3,0.3-1.7,0.9s-0.5,1.3-0.5,2.2L315.7,39.4L315.7,39.4z"></path> <path class="st5" d="M329.2,41.4c0-0.3-0.1-0.6-0.4-0.8s-0.8-0.4-1.6-0.6c-1.1-0.2-2-0.6-2.6-1s-0.9-1-0.9-1.8s0.3-1.5,1-2 s1.6-0.8,2.7-0.8s2.1,0.3,2.7,0.9s1,1.3,1,2.1v0.1h-2c0-0.4-0.2-0.7-0.5-1s-0.7-0.4-1.2-0.4s-0.9,0.1-1.2,0.4s-0.4,0.5-0.4,0.9 c0,0.3,0.1,0.6,0.4,0.8s0.8,0.4,1.6,0.5c1.2,0.2,2,0.6,2.6,1s0.9,1.1,0.9,1.8c0,0.9-0.4,1.6-1.1,2.1s-1.6,0.8-2.8,0.8 c-1.2,0-2.2-0.3-2.9-0.9s-1.1-1.4-1-2.2v-0.1h2c0,0.6,0.2,1,0.6,1.2s0.8,0.4,1.4,0.4c0.5,0,1-0.1,1.3-0.3S329.2,41.8,329.2,41.4z"></path> <path class="st5" d="M336.6,39.4c0-1.5,0.3-2.7,1-3.7s1.6-1.4,2.7-1.4c0.5,0,1,0.1,1.4,0.3s0.8,0.5,1.1,0.9v-5.2h2.1V44h-1.7 l-0.3-1.2c-0.3,0.5-0.7,0.8-1.1,1s-0.9,0.4-1.5,0.4c-1.2,0-2.1-0.4-2.7-1.3s-1-2-1-3.3V39.4z M338.7,39.6c0,0.9,0.2,1.6,0.5,2.1 s0.9,0.8,1.6,0.8c0.5,0,0.8-0.1,1.1-0.3s0.6-0.5,0.8-0.8v-4.1c-0.2-0.4-0.5-0.6-0.8-0.8s-0.7-0.3-1.1-0.3c-0.7,0-1.3,0.3-1.6,0.9 S338.7,38.5,338.7,39.6L338.7,39.6z"></path> <path class="st5" d="M350.8,44.2c-1.4,0-2.5-0.4-3.3-1.3s-1.2-2-1.2-3.4v-0.4c0-1.4,0.4-2.5,1.2-3.4s1.8-1.4,3-1.3 c1.3,0,2.2,0.4,2.9,1.2s1,1.8,1,3.2V40h-5.9l0,0c0,0.8,0.2,1.4,0.6,1.9s1,0.7,1.7,0.7c0.6,0,1.1-0.1,1.5-0.2s0.8-0.3,1.2-0.6 l0.7,1.4c-0.4,0.3-0.8,0.6-1.4,0.8S351.6,44.2,350.8,44.2z M350.6,36c-0.6,0-1,0.2-1.3,0.6s-0.5,0.9-0.6,1.6l0,0h3.7V38 c0-0.6-0.1-1.1-0.4-1.5S351.2,36,350.6,36z"></path> <path class="st5" d="M367.3,38.3h-5v4.1h5.9V44h-8V31.2h8v1.7h-5.8v3.6h5v1.8H367.3z"></path> <path class="st5" d="M373,37.8l1.8-3.3h2.5l-3,4.7l3.1,4.8H375l-1.8-3.3l-1.8,3.3H369l3.1-4.8l-3-4.7h2.4L373,37.8z"></path> <path class="st5" d="M382,42.5c0.5,0,0.9-0.2,1.2-0.5s0.5-0.7,0.5-1.2h1.9v0.1c0,0.9-0.3,1.7-1.1,2.3s-1.6,1-2.6,1 c-1.4,0-2.4-0.5-3.2-1.4s-1.1-2-1.1-3.4v-0.3c0-1.4,0.4-2.5,1.1-3.4s1.8-1.4,3.2-1.4c1.1,0,2,0.3,2.7,1s1,1.5,1,2.5v0.1h-1.9 c0-0.5-0.2-1-0.5-1.3S382.6,36,382,36c-0.8,0-1.3,0.3-1.6,0.9s-0.5,1.3-0.5,2.2v0.3c0,0.9,0.2,1.6,0.5,2.2S381.3,42.5,382,42.5z"></path> <path class="st5" d="M391.2,44.2c-1.4,0-2.5-0.4-3.3-1.3s-1.2-2-1.2-3.4v-0.4c0-1.4,0.4-2.5,1.2-3.4s1.8-1.4,3-1.3 c1.3,0,2.2,0.4,2.9,1.2s1,1.8,1,3.2V40H389l0,0c0,0.8,0.2,1.4,0.6,1.9s1,0.7,1.7,0.7c0.6,0,1.1-0.1,1.5-0.2s0.8-0.3,1.2-0.6 l0.7,1.4c-0.4,0.3-0.8,0.6-1.4,0.8S392,44.2,391.2,44.2z M391,36c-0.6,0-1,0.2-1.3,0.6s-0.5,0.9-0.6,1.6l0,0h3.7V38 c0-0.6-0.1-1.1-0.4-1.5S391.6,36,391,36z"></path> <path class="st5" d="M398.5,44h-2.1V30.3h2.1V44z"></path> <path class="st5" d="M404.6,44.2c-1.4,0-2.5-0.4-3.3-1.3s-1.2-2-1.2-3.4v-0.4c0-1.4,0.4-2.5,1.2-3.4s1.8-1.4,3-1.3 c1.3,0,2.2,0.4,2.9,1.2s1,1.8,1,3.2V40h-5.9l0,0c0,0.8,0.2,1.4,0.6,1.9s1,0.7,1.7,0.7c0.6,0,1.1-0.1,1.5-0.2s0.8-0.3,1.2-0.6 l0.7,1.4c-0.4,0.3-0.8,0.6-1.4,0.8S405.4,44.2,404.6,44.2z M404.3,36c-0.6,0-1,0.2-1.3,0.6s-0.5,0.9-0.6,1.6l0,0h3.7V38 c0-0.6-0.1-1.1-0.4-1.5S405,36,404.3,36z"></path> <path class="st5" d="M411.5,34.5l0.1,1.4c0.3-0.5,0.7-0.9,1.2-1.1s1-0.4,1.6-0.4c1,0,1.8,0.3,2.3,0.9s0.8,1.6,0.8,2.9V44h-2.1v-5.9 c0-0.7-0.1-1.3-0.4-1.6s-0.7-0.5-1.3-0.5c-0.5,0-0.9,0.1-1.2,0.3s-0.6,0.4-0.8,0.7v7h-2.1v-9.5H411.5z"></path> <path class="st5" d="M423.3,42.5c0.5,0,0.9-0.2,1.2-0.5s0.5-0.7,0.5-1.2h1.9v0.1c0,0.9-0.3,1.7-1.1,2.3s-1.6,1-2.6,1 c-1.4,0-2.4-0.5-3.2-1.4s-1.1-2-1.1-3.4v-0.3c0-1.4,0.4-2.5,1.1-3.4s1.8-1.4,3.2-1.4c1.1,0,2,0.3,2.7,1s1,1.5,1,2.5v0.1H425 c0-0.5-0.2-1-0.5-1.3s-0.7-0.5-1.3-0.5c-0.8,0-1.3,0.3-1.6,0.9s-0.5,1.3-0.5,2.2v0.3c0,0.9,0.2,1.6,0.5,2.2S422.5,42.5,423.3,42.5z "></path> <path class="st5" d="M430.7,32.2h-2.1v-1.9h2.1V32.2z M430.7,44h-2.1v-9.5h2.1V44z"></path> <path class="st5" d="M438.5,44c-0.1-0.2-0.1-0.5-0.2-0.7s-0.1-0.5-0.1-0.7c-0.3,0.4-0.7,0.8-1.2,1.1s-1,0.5-1.6,0.5 c-1,0-1.8-0.3-2.3-0.8s-0.8-1.2-0.8-2.1c0-0.9,0.4-1.6,1.1-2.1s1.7-0.8,3.1-0.8h1.7v-0.8c0-0.5-0.1-0.9-0.4-1.2S437,36,436.5,36 s-0.9,0.1-1.2,0.3s-0.4,0.5-0.4,0.9h-2.1v-0.1c0-0.8,0.3-1.4,1-2s1.6-0.9,2.8-0.9c1.1,0,2,0.3,2.7,0.8s1,1.4,1,2.4v4.2 c0,0.4,0,0.8,0.1,1.1s0.1,0.7,0.3,1.1h-2.2V44z M435.9,42.5c0.5,0,1-0.1,1.4-0.4s0.7-0.6,0.9-0.9v-1.4h-1.7c-0.6,0-1.1,0.2-1.5,0.5 s-0.5,0.7-0.5,1.1c0,0.4,0.1,0.7,0.4,0.9S435.4,42.5,435.9,42.5z"></path> <path class="st5" d="M272.1,59.5c0-1.5,0.3-2.7,1-3.7s1.6-1.4,2.7-1.4c0.5,0,1,0.1,1.4,0.3s0.8,0.5,1.1,0.9v-5.2h2.1v13.7h-1.7 l-0.3-1.2c-0.3,0.5-0.7,0.8-1.1,1s-0.9,0.4-1.5,0.4c-1.2,0-2.1-0.4-2.7-1.3s-1-2-1-3.3V59.5z M274.2,59.7c0,0.9,0.2,1.6,0.5,2.1 s0.9,0.8,1.6,0.8c0.5,0,0.8-0.1,1.1-0.3s0.6-0.5,0.8-0.8v-4.1c-0.2-0.4-0.5-0.6-0.8-0.8s-0.7-0.3-1.1-0.3c-0.7,0-1.3,0.3-1.6,0.9 S274.2,58.6,274.2,59.7L274.2,59.7z"></path> <path class="st5" d="M286.3,64.3c-1.4,0-2.5-0.4-3.3-1.3s-1.2-2-1.2-3.4v-0.4c0-1.4,0.4-2.5,1.2-3.4s1.8-1.4,3-1.3 c1.3,0,2.2,0.4,2.9,1.2s1,1.8,1,3.2v1.2H284l0,0c0,0.8,0.2,1.4,0.6,1.9s1,0.7,1.7,0.7c0.6,0,1.1-0.1,1.5-0.2s0.8-0.3,1.2-0.6 l0.7,1.4c-0.4,0.3-0.8,0.6-1.4,0.8C287.7,64.3,287.1,64.3,286.3,64.3z M286.1,56.1c-0.6,0-1,0.2-1.3,0.6s-0.5,0.9-0.6,1.6l0,0h3.7 v-0.2c0-0.6-0.1-1.1-0.4-1.5S286.7,56.1,286.1,56.1z"></path> <path class="st5" d="M303,58.7h-5.2v5.5h-2.1V51.3h8.2V53h-6.1v3.9h5.2V58.7z"></path> <path class="st5" d="M304.5,59.3c0-1.4,0.4-2.6,1.2-3.5s1.8-1.4,3.2-1.4c1.4,0,2.4,0.5,3.2,1.4s1.2,2.1,1.2,3.5v0.2 c0,1.4-0.4,2.6-1.2,3.5s-1.8,1.3-3.2,1.3c-1.4,0-2.4-0.5-3.2-1.4s-1.2-2.1-1.2-3.5V59.3z M306.6,59.5c0,0.9,0.2,1.7,0.5,2.3 s0.9,0.9,1.7,0.9c0.7,0,1.3-0.3,1.7-0.9s0.6-1.3,0.6-2.3v-0.2c0-0.9-0.2-1.7-0.6-2.2s-0.9-0.9-1.7-0.9c-0.7,0-1.3,0.3-1.7,0.9 s-0.5,1.3-0.5,2.2V59.5z"></path> <path class="st5" d="M319.5,56.5h-0.9c-0.4,0-0.8,0.1-1,0.3s-0.5,0.4-0.6,0.7v6.6h-2.1v-9.5h2L317,56c0.2-0.5,0.5-0.9,0.9-1.1 s0.8-0.4,1.3-0.4c0.1,0,0.2,0,0.4,0s0.2,0,0.3,0.1L319.5,56.5z"></path> <path class="st5" d="M322.6,54.6l0.1,1.2c0.3-0.5,0.7-0.8,1.2-1s1-0.4,1.6-0.4s1.2,0.1,1.6,0.4s0.8,0.7,1,1.3 c0.3-0.5,0.7-0.9,1.2-1.2s1-0.4,1.7-0.4c1,0,1.7,0.3,2.3,1s0.8,1.7,0.8,3v5.7H332v-5.7c0-0.8-0.1-1.4-0.4-1.8s-0.7-0.5-1.3-0.5 c-0.5,0-0.8,0.1-1.2,0.4s-0.5,0.6-0.7,1c0,0.1,0,0.2,0,0.2s0,0.1,0,0.2v6.2h-2.1v-5.7c0-0.8-0.1-1.4-0.4-1.7s-0.7-0.5-1.3-0.5 c-0.4,0-0.8,0.1-1.1,0.3s-0.5,0.4-0.7,0.7v7h-2.1v-9.5h1.9V54.6z"></path> <path class="st5" d="M341.7,64.1c-0.1-0.2-0.1-0.5-0.2-0.7s-0.1-0.5-0.1-0.7c-0.3,0.4-0.7,0.8-1.2,1.1c-0.5,0.3-1,0.5-1.6,0.5 c-1,0-1.8-0.3-2.3-0.8s-0.8-1.2-0.8-2.1c0-0.9,0.4-1.6,1.1-2.1s1.7-0.8,3.1-0.8h1.7v-0.8c0-0.5-0.1-0.9-0.4-1.2s-0.7-0.4-1.3-0.4 c-0.5,0-0.9,0.1-1.2,0.3s-0.4,0.5-0.4,0.9H336v-0.1c0-0.8,0.3-1.4,1-2s1.6-0.9,2.8-0.9c1.1,0,2,0.3,2.7,0.8s1,1.4,1,2.4v4.2 c0,0.4,0,0.8,0.1,1.1s0.1,0.7,0.3,1.1h-2.2V64.1z M339.1,62.6c0.5,0,1-0.1,1.4-0.4s0.7-0.6,0.9-0.9v-1.4h-1.7 c-0.6,0-1.1,0.2-1.5,0.5s-0.5,0.7-0.5,1.1c0,0.4,0.1,0.7,0.4,0.9S338.7,62.6,339.1,62.6z"></path> <path class="st5" d="M349.3,62.6c0.5,0,0.9-0.2,1.2-0.5s0.5-0.7,0.5-1.2h1.9V61c0,0.9-0.3,1.7-1.1,2.3s-1.6,1-2.6,1 c-1.4,0-2.4-0.5-3.2-1.4s-1.1-2-1.1-3.4v-0.3c0-1.4,0.4-2.5,1.1-3.4s1.8-1.4,3.2-1.4c1.1,0,2,0.3,2.7,1s1,1.5,1,2.5V58H351 c0-0.5-0.2-1-0.5-1.3s-0.7-0.5-1.3-0.5c-0.8,0-1.3,0.3-1.6,0.9s-0.5,1.3-0.5,2.2v0.3c0,0.9,0.2,1.6,0.5,2.2S348.5,62.6,349.3,62.6z "></path> <path class="st5" d="M356.7,52.3h-2.1v-1.9h2.1V52.3z M356.7,64.1h-2.1v-9.5h2.1V64.1z"></path> <path class="st5" d="M358.3,59.3c0-1.4,0.4-2.6,1.2-3.5s1.8-1.4,3.2-1.4c1.4,0,2.4,0.5,3.2,1.4s1.2,2.1,1.2,3.5v0.2 c0,1.4-0.4,2.6-1.2,3.5s-1.8,1.3-3.2,1.3c-1.4,0-2.4-0.5-3.2-1.4s-1.2-2.1-1.2-3.5V59.3z M360.5,59.5c0,0.9,0.2,1.7,0.5,2.3 s0.9,0.9,1.7,0.9c0.7,0,1.3-0.3,1.7-0.9s0.6-1.3,0.6-2.3v-0.2c0-0.9-0.2-1.7-0.6-2.2s-0.9-0.9-1.7-0.9c-0.7,0-1.3,0.3-1.7,0.9 s-0.5,1.3-0.5,2.2V59.5z M363.4,50.5h2.4v0.1l-2.4,2.3h-1.7L363.4,50.5z"></path> <path class="st5" d="M370.5,54.6l0.1,1.4c0.3-0.5,0.7-0.9,1.2-1.1s1-0.4,1.6-0.4c1,0,1.8,0.3,2.3,0.9s0.8,1.6,0.8,2.9v5.9h-2.1 v-5.9c0-0.7-0.1-1.3-0.4-1.6s-0.7-0.5-1.3-0.5c-0.5,0-0.9,0.1-1.2,0.3s-0.6,0.4-0.8,0.7v7h-2.1v-9.5h1.9V54.6z"></path> <path class="st5" d="M384.9,59.3v4.9h-2.1V51.3h4.9c1.4,0,2.5,0.4,3.3,1.1s1.2,1.7,1.2,2.9s-0.4,2.2-1.2,2.9s-1.9,1.1-3.3,1.1 H384.9z M384.9,57.5h2.8c0.8,0,1.4-0.2,1.8-0.6s0.6-1,0.6-1.6s-0.2-1.2-0.6-1.6s-1-0.7-1.8-0.7h-2.8V57.5z"></path> <path class="st5" d="M398.4,56.5h-0.9c-0.4,0-0.8,0.1-1,0.3s-0.5,0.4-0.6,0.7v6.6h-2.1v-9.5h2l0.1,1.4c0.2-0.5,0.5-0.9,0.9-1.1 s0.8-0.4,1.3-0.4c0.1,0,0.2,0,0.4,0s0.2,0,0.3,0.1L398.4,56.5z"></path> <path class="st5" d="M399,59.3c0-1.4,0.4-2.6,1.2-3.5s1.8-1.4,3.2-1.4c1.4,0,2.4,0.5,3.2,1.4s1.2,2.1,1.2,3.5v0.2 c0,1.4-0.4,2.6-1.2,3.5s-1.8,1.3-3.2,1.3c-1.4,0-2.4-0.5-3.2-1.4s-1.2-2.1-1.2-3.5V59.3z M401.1,59.5c0,0.9,0.2,1.7,0.5,2.3 s0.9,0.9,1.7,0.9c0.7,0,1.3-0.3,1.7-0.9s0.6-1.3,0.6-2.3v-0.2c0-0.9-0.2-1.7-0.6-2.2s-0.9-0.9-1.7-0.9c-0.7,0-1.3,0.3-1.7,0.9 s-0.5,1.3-0.5,2.2V59.5z"></path> <path class="st5" d="M409.9,64.1v-7.9h-1.5v-1.6h1.5v-1.1c0-1,0.3-1.9,0.9-2.4s1.4-0.9,2.4-0.9c0.2,0,0.4,0,0.6,0s0.4,0.1,0.7,0.1 l-0.2,1.7c-0.1,0-0.2,0-0.4-0.1s-0.3,0-0.5,0c-0.5,0-0.8,0.1-1,0.4s-0.3,0.6-0.3,1.1v1.1h1.8v1.6h-1.8V64h-2.2V64.1z"></path> <path class="st5" d="M418.8,64.3c-1.4,0-2.5-0.4-3.3-1.3s-1.2-2-1.2-3.4v-0.4c0-1.4,0.4-2.5,1.2-3.4s1.8-1.4,3-1.3 c1.3,0,2.2,0.4,2.9,1.2s1,1.8,1,3.2v1.2h-5.9l0,0c0,0.8,0.2,1.4,0.6,1.9s1,0.7,1.7,0.7c0.6,0,1.1-0.1,1.5-0.2s0.8-0.3,1.2-0.6 l0.7,1.4c-0.4,0.3-0.8,0.6-1.4,0.8C420.2,64.3,419.6,64.3,418.8,64.3z M418.6,56.1c-0.6,0-1,0.2-1.3,0.6s-0.5,0.9-0.6,1.6l0,0h3.7 v-0.2c0-0.6-0.1-1.1-0.4-1.5S419.2,56.1,418.6,56.1z"></path> <path class="st5" d="M429.2,61.5c0-0.3-0.1-0.6-0.4-0.8s-0.8-0.4-1.6-0.6c-1.1-0.2-2-0.6-2.6-1s-0.9-1-0.9-1.8s0.3-1.5,1-2 s1.6-0.8,2.7-0.8s2.1,0.3,2.7,0.9s1,1.3,1,2.1v0.1h-2c0-0.4-0.2-0.7-0.5-1s-0.7-0.4-1.2-0.4s-0.9,0.1-1.2,0.4s-0.4,0.5-0.4,0.9 c0,0.3,0.1,0.6,0.4,0.8s0.8,0.4,1.6,0.5c1.2,0.2,2,0.6,2.6,1s0.9,1.1,0.9,1.8c0,0.9-0.4,1.6-1.1,2.1c-0.7,0.5-1.6,0.8-2.8,0.8 c-1.2,0-2.2-0.3-2.9-0.9s-1.1-1.4-1-2.2v-0.1h2c0,0.6,0.2,1,0.6,1.2s0.8,0.4,1.4,0.4c0.5,0,1-0.1,1.3-0.3S429.2,61.9,429.2,61.5z"></path> <path class="st5" d="M435.1,52.3H433v-1.9h2.1V52.3z M435.1,64.1H433v-9.5h2.1V64.1z"></path> <path class="st5" d="M436.7,59.3c0-1.4,0.4-2.6,1.2-3.5s1.8-1.4,3.2-1.4c1.4,0,2.4,0.5,3.2,1.4s1.2,2.1,1.2,3.5v0.2 c0,1.4-0.4,2.6-1.2,3.5s-1.8,1.3-3.2,1.3c-1.4,0-2.4-0.5-3.2-1.4s-1.2-2.1-1.2-3.5V59.3z M438.9,59.5c0,0.9,0.2,1.7,0.5,2.3 s0.9,0.9,1.7,0.9c0.7,0,1.3-0.3,1.7-0.9s0.6-1.3,0.6-2.3v-0.2c0-0.9-0.2-1.7-0.6-2.2s-0.9-0.9-1.7-0.9c-0.7,0-1.3,0.3-1.7,0.9 s-0.5,1.3-0.5,2.2V59.5z"></path> <path class="st5" d="M448.9,54.6L449,56c0.3-0.5,0.7-0.9,1.2-1.1s1-0.4,1.6-0.4c1,0,1.8,0.3,2.3,0.9s0.8,1.6,0.8,2.9v5.9h-2.1v-5.9 c0-0.7-0.1-1.3-0.4-1.6s-0.7-0.5-1.3-0.5c-0.5,0-0.9,0.1-1.2,0.3s-0.6,0.4-0.8,0.7v7H447v-9.5h1.9V54.6z"></path> <path class="st5" d="M462.5,64.1c-0.1-0.2-0.1-0.5-0.2-0.7s-0.1-0.5-0.1-0.7c-0.3,0.4-0.7,0.8-1.2,1.1c-0.5,0.3-1,0.5-1.6,0.5 c-1,0-1.8-0.3-2.3-0.8s-0.8-1.2-0.8-2.1c0-0.9,0.4-1.6,1.1-2.1s1.7-0.8,3.1-0.8h1.7v-0.8c0-0.5-0.1-0.9-0.4-1.2s-0.7-0.4-1.3-0.4 c-0.5,0-0.9,0.1-1.2,0.3s-0.4,0.5-0.4,0.9h-2.1v-0.1c0-0.8,0.3-1.4,1-2s1.6-0.9,2.8-0.9c1.1,0,2,0.3,2.7,0.8s1,1.4,1,2.4v4.2 c0,0.4,0,0.8,0.1,1.1s0.1,0.7,0.3,1.1h-2.2V64.1z M459.9,62.6c0.5,0,1-0.1,1.4-0.4s0.7-0.6,0.9-0.9v-1.4h-1.7 c-0.6,0-1.1,0.2-1.5,0.5s-0.5,0.7-0.5,1.1c0,0.4,0.1,0.7,0.4,0.9S459.5,62.6,459.9,62.6z"></path> <path class="st5" d="M468.5,64.1h-2.1V50.4h2.1V64.1z"></path> <path class="st5" d="M279.4,80.9c0-0.5-0.2-1-0.6-1.3s-1-0.6-2-0.9c-1.4-0.4-2.4-0.9-3.2-1.5s-1.1-1.4-1.1-2.4s0.4-1.9,1.2-2.5 s1.9-1,3.2-1c1.4,0,2.5,0.4,3.3,1.1s1.2,1.7,1.2,2.7v0.1h-2.1c0-0.7-0.2-1.2-0.7-1.6s-1-0.6-1.8-0.6c-0.7,0-1.3,0.2-1.7,0.5 s-0.6,0.8-0.6,1.3s0.2,0.9,0.6,1.2s1.1,0.6,2.1,0.9c1.3,0.4,2.4,0.9,3.1,1.5s1.1,1.5,1.1,2.5c0,1.1-0.4,1.9-1.2,2.5 s-1.9,0.9-3.3,0.9c-1.3,0-2.4-0.3-3.4-1s-1.4-1.7-1.4-2.9v-0.1h2.1c0,0.8,0.3,1.3,0.8,1.7s1.2,0.6,1.9,0.6c0.8,0,1.3-0.2,1.8-0.5 S279.4,81.5,279.4,80.9z"></path> <path class="st5" d="M287.2,84.4c-1.4,0-2.5-0.4-3.3-1.3s-1.2-2-1.2-3.4v-0.4c0-1.4,0.4-2.5,1.2-3.4s1.8-1.4,3-1.3 c1.3,0,2.2,0.4,2.9,1.2s1,1.8,1,3.2v1H285l0,0c0,0.8,0.2,1.4,0.6,1.9s1,0.7,1.7,0.7c0.6,0,1.1-0.1,1.5-0.2s0.8-0.3,1.2-0.6l0.7,1.4 c-0.4,0.3-0.8,0.6-1.4,0.8S288,84.4,287.2,84.4z M287,76.2c-0.6,0-1,0.2-1.3,0.6s-0.5,0.9-0.6,1.6l0,0h3.7v-0.2 c0-0.6-0.1-1.1-0.4-1.5S287.6,76.2,287,76.2z"></path> <path class="st5" d="M296.1,82.7c0.5,0,0.9-0.2,1.2-0.5s0.5-0.7,0.5-1.2h1.9v0.1c0,0.9-0.3,1.7-1.1,2.3s-1.6,1-2.6,1 c-1.4,0-2.4-0.5-3.2-1.4s-1.1-2-1.1-3.4v-0.3c0-1.4,0.4-2.5,1.1-3.4s1.8-1.4,3.2-1.4c1.1,0,2,0.3,2.7,1s1,1.5,1,2.5v0.1h-1.9 c0-0.5-0.2-1-0.5-1.3s-0.7-0.5-1.3-0.5c-0.8,0-1.3,0.3-1.6,0.9s-0.5,1.3-0.5,2.2v0.3c0,0.9,0.2,1.6,0.5,2.2S295.3,82.7,296.1,82.7z "></path> <path class="st5" d="M304,72.4v2.3h1.7v1.6H304v5.3c0,0.4,0.1,0.7,0.3,0.8s0.4,0.3,0.7,0.3c0.1,0,0.2,0,0.3,0s0.2,0,0.3-0.1 l0.2,1.6c-0.2,0.1-0.4,0.2-0.6,0.2s-0.5,0.1-0.8,0.1c-0.8,0-1.4-0.2-1.9-0.7s-0.7-1.2-0.7-2.2v-5.3h-1.5v-1.6h1.5v-2.3 C301.8,72.4,304,72.4,304,72.4z"></path> <path class="st5" d="M306.6,79.4c0-1.4,0.4-2.6,1.2-3.5s1.8-1.4,3.2-1.4c1.4,0,2.4,0.5,3.2,1.4s1.2,2.1,1.2,3.5v0.2 c0,1.4-0.4,2.6-1.2,3.5s-1.8,1.3-3.2,1.3c-1.4,0-2.4-0.5-3.2-1.4S306.6,80.9,306.6,79.4L306.6,79.4z M308.8,79.6 c0,0.9,0.2,1.7,0.5,2.3s0.9,0.9,1.7,0.9c0.7,0,1.3-0.3,1.7-0.9s0.6-1.3,0.6-2.3v-0.2c0-0.9-0.2-1.7-0.6-2.2s-0.9-0.9-1.7-0.9 c-0.7,0-1.3,0.3-1.7,0.9s-0.5,1.3-0.5,2.2V79.6z"></path> <path class="st5" d="M321.6,76.6h-0.9c-0.4,0-0.8,0.1-1,0.3s-0.5,0.4-0.6,0.7v6.6H317v-9.5h2l0.1,1.4c0.2-0.5,0.5-0.9,0.9-1.1 s0.8-0.4,1.3-0.4c0.1,0,0.2,0,0.4,0s0.2,0,0.3,0.1L321.6,76.6z"></path> <path class="st5" d="M337.2,79c0,0.7-0.1,1.3-0.3,1.9s-0.4,1.1-0.8,1.6l1.9,1.9l-1.4,1.3l-1.9-1.9c-0.4,0.2-0.8,0.4-1.3,0.5 s-1,0.2-1.5,0.2c-1.5,0-2.8-0.5-3.7-1.5s-1.4-2.3-1.4-3.9v-2.3c0-1.6,0.5-2.9,1.4-3.9s2.2-1.5,3.7-1.5c1.6,0,2.8,0.5,3.8,1.5 s1.5,2.3,1.5,3.9L337.2,79L337.2,79z M335.1,76.6c0-1.1-0.3-1.9-0.9-2.6s-1.3-1-2.3-1c-0.9,0-1.7,0.3-2.2,1s-0.8,1.6-0.8,2.6V79 c0,1.1,0.3,2,0.8,2.7s1.3,1,2.2,1c1,0,1.8-0.3,2.3-1s0.8-1.6,0.8-2.7v-2.4H335.1z"></path> <path class="st5" d="M345.1,82.8c-0.3,0.5-0.7,0.9-1.1,1.2s-1,0.4-1.6,0.4c-1,0-1.8-0.3-2.4-1s-0.9-1.7-0.9-3.1v-5.6h2.1v5.6 c0,0.9,0.1,1.5,0.4,1.9s0.7,0.5,1.2,0.5s0.9-0.1,1.3-0.3s0.6-0.5,0.8-0.8v-6.9h2.1v9.5h-1.8L345.1,82.8z"></path> <path class="st5" d="M351.3,84.2h-2.1v-9.5h2.1V84.2z M350.9,70.8h2.4v0.1l-2.4,2.3h-1.7L350.9,70.8z"></path> <path class="st5" d="M355.3,74.7l0.1,1.2c0.3-0.5,0.7-0.8,1.2-1s1-0.4,1.6-0.4s1.2,0.1,1.6,0.4s0.8,0.7,1,1.3 c0.3-0.5,0.7-0.9,1.2-1.2s1-0.4,1.7-0.4c1,0,1.7,0.3,2.3,1s0.8,1.7,0.8,3v5.7h-2.1v-5.7c0-0.8-0.1-1.4-0.4-1.8s-0.7-0.5-1.3-0.5 c-0.5,0-0.8,0.1-1.2,0.4s-0.5,0.6-0.7,1c0,0.1,0,0.2,0,0.2s0,0.1,0,0.2v6.2H359v-5.7c0-0.8-0.1-1.4-0.4-1.7s-0.7-0.5-1.3-0.5 c-0.4,0-0.8,0.1-1.1,0.3s-0.5,0.4-0.7,0.7v7h-2.1v-9.5h1.9V74.7z"></path> <path class="st5" d="M371,72.4h-2.1v-1.9h2.1V72.4z M371,84.2h-2.1v-9.5h2.1V84.2z"></path> <path class="st5" d="M376.9,82.7c0.5,0,0.9-0.2,1.2-0.5s0.5-0.7,0.5-1.2h1.9v0.1c0,0.9-0.3,1.7-1.1,2.3s-1.6,1-2.6,1 c-1.4,0-2.4-0.5-3.2-1.4s-1.1-2-1.1-3.4v-0.3c0-1.4,0.4-2.5,1.1-3.4s1.8-1.4,3.2-1.4c1.1,0,2,0.3,2.7,1s1,1.5,1,2.5v0.1h-1.9 c0-0.5-0.2-1-0.5-1.3s-0.7-0.5-1.3-0.5c-0.8,0-1.3,0.3-1.6,0.9s-0.5,1.3-0.5,2.2v0.3c0,0.9,0.2,1.6,0.5,2.2S376.1,82.7,376.9,82.7z "></path> <path class="st5" d="M381.6,79.4c0-1.4,0.4-2.6,1.2-3.5s1.8-1.4,3.2-1.4c1.4,0,2.4,0.5,3.2,1.4s1.2,2.1,1.2,3.5v0.2 c0,1.4-0.4,2.6-1.2,3.5s-1.8,1.3-3.2,1.3c-1.4,0-2.4-0.5-3.2-1.4S381.6,80.9,381.6,79.4L381.6,79.4z M383.7,79.6 c0,0.9,0.2,1.7,0.5,2.3s0.9,0.9,1.7,0.9c0.7,0,1.3-0.3,1.7-0.9s0.6-1.3,0.6-2.3v-0.2c0-0.9-0.2-1.7-0.6-2.2s-0.9-0.9-1.7-0.9 c-0.7,0-1.3,0.3-1.7,0.9s-0.5,1.3-0.5,2.2V79.6z"></path> </g> <g> <path class="st4" d="M39.2,63.2l0.3,0.1c0.9,0.4,1.9,0.8,3.1,1.1l0.3,0.1l0.2-0.3c0.4-0.5,0.7-1.1,1-1.7c0.3,0,0.6,0.1,1,0.1 s0.7,0,1,0c0.3,0.6,0.6,1.2,0.9,1.8l0.2,0.3h0.3h0.1l0,0c1.1-0.2,2.1-0.4,3-0.8l0.3-0.1v-0.3c0-0.7,0-1.4,0-2c0,0,0,0,0.1,0 c0.3-0.1,0.6-0.3,0.8-0.5h0.1c0.3-0.2,0.5-0.3,0.8-0.5c0.6,0.4,1.2,0.7,1.7,1l0.3,0.2l0.3-0.2c0.9-0.8,1.7-1.6,2.3-2.4l0.2-0.3 l-0.2-0.3c-0.4-0.6-0.7-1.2-1.1-1.7l0,0c0.2-0.3,0.3-0.5,0.5-0.8l0.1-0.3c0.1-0.2,0.2-0.4,0.3-0.6c0.7,0,1.3,0,2-0.1h0.3l0.1-0.3 c0.3-1.2,0.5-2.3,0.6-3.3v-0.3L60,50.6c-0.6-0.3-1.2-0.6-1.8-0.8c0-0.2,0-0.4,0-0.7v-0.4v-0.3c0-0.2-0.1-0.5-0.1-0.7 c0.6-0.4,1.1-0.7,1.6-1.2l0.3-0.2L59.9,46c-0.1-0.4-0.3-0.9-0.4-1.3l-0.1-0.3l0,0C59,44,58.8,43.5,58.5,43l-0.2-0.3H58 c-0.7,0.1-1.3,0.2-2,0.3c-0.1-0.2-0.3-0.4-0.4-0.6l-0.2-0.2c-0.2-0.3-0.4-0.5-0.6-0.7l0,0c0.3-0.6,0.5-1.2,0.8-1.9l0.1-0.3 l-0.2-0.2c-0.7-0.7-1.6-1.3-2.7-1.9L52.5,37l-0.3,0.2c-0.5,0.4-1,0.9-1.5,1.4c-0.3-0.1-0.6-0.2-0.9-0.3h-0.1 c-0.3-0.1-0.6-0.2-0.9-0.3c0,0,0,0-0.1,0c-0.1-0.6-0.2-1.3-0.4-2l-0.1-0.3l-0.3-0.1c-0.8-0.1-1.6-0.2-2.5-0.2c-0.3,0-0.5,0-0.8,0 h-0.3l-0.1,0.3c-0.2,0.6-0.4,1.3-0.5,1.9c-0.3,0.1-0.7,0.1-1,0.2c-0.4,0.1-0.7,0.2-1,0.3c-0.5-0.5-0.9-1-1.4-1.5l-0.3,0l-0.3,0.1 c-1.1,0.5-2.1,1.1-2.9,1.7l-0.3,0.2l0.1,0.3c0.2,0.7,0.4,1.3,0.6,1.9l0,0c-0.2,0.2-0.5,0.4-0.7,0.7l-0.1,0.2 c-0.2,0.2-0.3,0.4-0.5,0.6c-0.7-0.2-1.3-0.4-1.9-0.5l-0.3-0.1L33.5,42c-0.6,1-1.1,1.8-1.4,2.7c0,0.1-0.1,0.2-0.1,0.3l-0.1,0.3 l0.2,0.2c0.5,0.5,1,0.9,1.5,1.3l0,0c-0.1,0.3-0.2,0.6-0.2,1c0,0.1,0,0.3-0.1,0.4c0,0.2-0.1,0.4-0.1,0.6c-0.6,0.2-1.3,0.4-1.9,0.6 L31,49.5v0.3c0,1.1,0.1,2.2,0.3,3.3l0.1,0.3l0.3,0.1c0.7,0.1,1.3,0.2,2,0.2c0.1,0.2,0.1,0.4,0.2,0.6c0,0.1,0.1,0.3,0.1,0.4 c0.1,0.3,0.3,0.6,0.4,0.9l0,0c-0.4,0.5-0.8,1-1.2,1.6L33,57.5l0.2,0.3c0.5,0.8,1.2,1.7,2.1,2.6l0.2,0.2l0.3-0.1 c0.6-0.3,1.2-0.6,1.8-0.9c0.2,0.2,0.4,0.3,0.6,0.5l0.2,0.1c0.3,0.2,0.5,0.4,0.8,0.5c0,0,0,0,0.1,0c-0.1,0.6-0.2,1.3-0.2,2 L39.2,63.2z M45.7,59.3c-5.1,0-9.2-4.1-9.2-9.2c0-1.7,0.5-3.4,1.4-4.8c1.7-2.8,4.6-4.4,7.9-4.4c3.2,0,6.2,1.6,7.9,4.4 c0.9,1.4,1.4,3.1,1.4,4.8C54.9,55.1,50.8,59.3,45.7,59.3z"></path> <path class="st4" d="M84.6,77.8c-0.9-1.5-2.2-3.5-3.6-5.5c0.1-0.2,0.1-0.4,0.2-0.5c0,0,0,0,0-0.1c0.1-1,0.2-2,0.2-2.9 S81.3,67,81.2,66l0,0c-0.6-4.9-2.6-10.4-6.1-16.4c0.6-1,1.1-1.9,1.6-2.9c0.4-0.9,0.9-1.7,1.3-2.6c1.6-3.5,3.5-8.7,3.5-13.8 c0-4.6-1.3-8.2-3.8-10.8c-1.9-1.6-4.1-2.7-6.4-3.4c-0.6-0.2-1.2-0.3-1.7-0.4v-0.1c0-0.3,0-0.7-0.1-1c-0.5-1.9-2.2-3.1-4-3L64.7,8 L63,8.3l0.8,3.6c-1.7,0.7-2.7,2.6-2.3,4.4l0.1,0.2v0.1c-0.1,0.1-0.1,0.2,0,0.4c0,0.2,0.2,0.3,0.3,0.4c0.3,0.7,0.8,1.2,1.4,1.6 l-0.5,14.8V34c-0.1-0.1-0.1-0.1-0.2-0.2l-1.2-1.2c-4.1-3.9-8.6-7.3-13-10c1.8-1,3.7-1.9,5.5-2.7c1.9-0.8,3.7-1.4,5.4-1.9 c0.3-0.1,0.4-0.3,0.4-0.6c-0.1-0.3-0.3-0.4-0.6-0.4c-2.5,0.4-5.2,1.3-8.1,2.5c-1.5,0.6-3,1.4-4.5,2.2c0-0.2-0.1-0.3-0.3-0.4 c-1.1-0.6-2.2-1.2-3.3-1.7l0,0L42,19.3l2.1-1.8l-5.6-6.7l-4.1,5.8c-2.5-0.6-5-0.9-7.3-0.9c-10.3,0-16,5.3-16,14.9 c0,2.3,0.4,4.8,1.1,7.4l-6.4,8.7l6.8-7.2l0.3,0.8c0.4,1.3,0.9,2.5,1.5,3.8l0,0c0.1,0.2,0.2,0.4,0.3,0.6c0.6,1.3,0.7,1.5,1.3,2.6 l0.1,0.2c0.1,0.2,0.2,0.3,0.4,0.3l0,0c0.2,0,0.3-0.1,0.4-0.2c0.4-0.6,0.8-1.2,1.2-1.8c0.1-0.2,0.1-0.4,0-0.5L18,45.2 c-0.3-0.6-0.3-0.6-0.5-1l-0.2-0.4l0,0c-0.8-1.8-1.5-3.7-2-5.4L14.9,37l8.4-8.8v7.1L40,20.9l1.3,0.6c0.9,0.5,1.8,1,2.7,1.6l0,0 C35.6,28,27.7,35.2,21.5,43.5l0,0c-0.3,0.3-0.5,0.7-0.8,1c-1.1,1.5-2.1,3.2-3.1,4.8l0,0c0,0,0,0.1-0.1,0.1 C14,55.5,11.9,61,11.2,65.9l0,0C11.1,67,11,68,11,69c0,1.5,0.1,2.8,0.4,4.1c-1.2,1.1-1.9,2.6-1.9,4.3c0,3.2,2.6,5.7,5.7,5.7 c1.1,0,2.2-0.3,3.1-0.9c1.1,0.5,2.3,1,4.8,1c0.2,0,0.4,0,0.6,0c1.7-0.1,3.6-0.4,5.6-0.9c0.3-0.1,0.4-0.3,0.4-0.6 c-0.1-0.3-0.3-0.4-0.6-0.4c-1.2,0.2-2.4,0.3-3.4,0.3c-2.8,0-4.1-0.2-5.6-1.1c0.6-0.9,0.9-2,0.9-3.1c0-3.2-2.6-5.7-5.7-5.7 c-0.3,0-0.5,0-0.7,0.1c-0.2-1-0.2-1.9-0.2-2.9c0-0.9,0.1-1.8,0.2-2.7l0,0c0.5-4.1,2.1-8.6,4.7-13.6c3.7,4.9,7.8,9.6,12.1,13.8 c2.4,2.3,4.9,4.6,7.5,6.7c0.1,0.1,0.2,0.1,0.3,0.1l0,0h2.4c0.2,0,0.4-0.1,0.5-0.3c0.1-0.2,0-0.4-0.2-0.6c-3.7-3.1-7.3-6.4-10.6-9.9 c-3.8-4-7.3-8.3-10.4-12.7c1.1-1.8,2.3-3.6,3.6-5.4l0,0c5.8-8,13.4-15,21.3-20c6.4,4.2,11.7,9.4,15.1,13c0.8,0.9,1.7,1.8,2.6,2.7 c1.4,1.4,2.8,2.8,4.1,4.3l0,0c0.2,0.3,0.4,0.5,0.6,0.7c0.8,0.9,1.1,1.2,2,2.4c0.1,0.1,0.3,0.2,0.4,0.2c0.2,0,0.3-0.1,0.4-0.3 c0.4-0.7,0.7-1.3,1-2c0.1-0.2,0.1-0.4,0-0.5c-0.2-0.3-0.4-0.6-0.7-1c0-0.1,0-0.1-0.1-0.2c-1.7-2.3-3.5-4.5-5.4-6.6 c-0.5-0.6-1.1-1.2-1.7-1.8l1.5-15.6c0.3,0,0.6,0,0.9-0.1h0.2l8.1,19.8l0.3-2.9l-6.2-18.6c0-0.1,0.1-0.2,0.1-0.2 c1.6,0.4,3.8,1.2,5.4,2.7c2.5,2.3,3.7,5.8,3.7,10.2c0,3.7-1.1,8.1-3.2,12.9l-0.1,0.3c-2.7,6.1-6.9,12.3-12.2,18.1 c-1.2,1.3-2.5,2.7-3.8,3.9c-8.5,8.3-18.1,14.1-27,16.4c-0.3,0.1-0.4,0.3-0.4,0.6c0.1,0.3,0.3,0.4,0.6,0.4c4.6-0.9,9.3-2.6,14.1-5.3 c6.9,3.8,13.3,5.8,19.2,5.8c0.9,0,1.8,0,2.6-0.1c0.2,0,0.3-0.1,0.5-0.1c0.7,0.3,1.3,0.4,1.9,0.4h9.3C82.5,83.8,86.8,81.6,84.6,77.8 z M26.2,18.9L14.6,34.6c-0.3-1.5-0.4-3-0.4-4.4C14.2,23.8,17.3,17,26,17c2.3,0,4.8,0.4,7.3,1.1l-5.4,7.8L26.2,18.9z M61.5,66.4 L61.5,66.4c4.5-4.3,8.6-9.1,11.8-14c2.6,5,4.2,9.6,4.8,13.6l0,0c0.1,0.8,0.2,1.5,0.2,2.3c-0.4-0.6-0.8-1.1-1.1-1.5l0,0l0,0 c-0.2-0.3-0.4-0.6-0.6-0.8l0,0c-0.1-0.2-0.2-0.3-0.3-0.3c-0.5-0.5-1.1-0.8-1.9-0.8s-1.6,0.2-2.6,0.5c-0.2,0.1-0.7,0.3-1.3,0.6l0,0 c-0.4,0.2-0.7,0.4-1.2,0.6l0,0l0,0c-3.2,1.5-7.8,3.9-8.1,4.1c-0.4,0.3-0.1,0.4,0.3,0.4c0.3,0.1,9.2-2.5,9.9-2.6s0.9,0.4,0.7,1.2 c-0.2,0.8-6.1,7.4-6.1,10.1c0,1,0.4,1.7,0.9,2.4c-0.1,0-0.2,0-0.3,0c-5.3,0-11.6-2-18.1-5.7C52.9,73.8,57.3,70.4,61.5,66.4z"></path> </g> </svg>